Coordinates
version=1
nRows=8
nColumns=63
inDegrees=yes

Units are S.I. units (second, meters, Newtons, ...)
If the header above contains a line with 'inDegrees', this indicates whether rotational values are in degrees (yes) or radians (no).

endheader
time	pelvis_tilt	pelvis_list	pelvis_rotation	pelvis_tx	pelvis_ty	pelvis_tz	hip_flexion_r	hip_adduction_r	hip_rotation_r	knee_angle_r	knee_angle_r_beta	ankle_angle_r	subtalar_angle_r	mtp_angle_r	hip_flexion_l	hip_adduction_l	hip_rotation_l	knee_angle_l	knee_angle_l_beta	ankle_angle_l	subtalar_angle_l	mtp_angle_l	L5_S1_Flex_Ext	L5_S1_Lat_Bending	L5_S1_axial_rotation	L4_L5_Flex_Ext	L4_L5_Lat_Bending	L4_L5_axial_rotation	L3_L4_Flex_Ext	L3_L4_Lat_Bending	L3_L4_axial_rotation	L2_L3_Flex_Ext	L2_L3_Lat_Bending	L2_L3_axial_rotation	L1_L2_Flex_Ext	L1_L2_Lat_Bending	L1_L2_axial_rotation	L1_T12_Flex_Ext	L1_T12_Lat_Bending	L1_T12_axial_rotation	Abs_r3	Abs_r2	Abs_r1	Abs_t1	Abs_t2	neck_flexion	neck_bending	neck_rotation	arm_flex_r	arm_add_r	arm_rot_r	elbow_flex_r	pro_sup_r	wrist_flex_r	wrist_dev_r	arm_flex_l	arm_add_l	arm_rot_l	elbow_flex_l	pro_sup_l	wrist_flex_l	wrist_dev_l
      3.15000000	      1.73506315	     -1.17977810	     98.83594393	      0.18286672	      0.48104081	      0.97372594	      2.39857756	      5.54575814	     -5.20852185	     17.43173312	      0.30424114	     45.57326205	      0.88712622	      0.00000000	     -0.92934078	     -1.78878012	     -5.56765618	     13.22677933	      0.23085085	     45.02563289	     12.37063138	      0.00000000	      0.01401657	      0.24951476	     -0.55184781	      0.02603018	      0.33185464	     -0.58633830	      0.02302783	      0.60667020	     -0.58633830	      0.01601954	      0.60667020	     -0.48286683	      0.01301579	      0.50881051	     -0.44837635	      0.00800907	      0.38649837	     -0.41388586	      0.10011899	      2.82256091	     -3.06921197	      0.00000000	      0.00000000	     22.42391323	      0.67188418	    -15.06209775	      9.42872480	    -22.90116589	     32.86489251	    142.85153275	     87.64379670	     23.21101507	      3.70794945	     10.99763622	     -8.55571781	    132.61504748	      9.40250860	      4.69658466	     -5.94327630	     -7.67980327
      3.16666667	      1.42447466	     -1.23518937	     99.16036563	      0.18308238	      0.48106302	      0.97346904	      2.27415509	      5.25753260	     -5.37952800	     17.28618656	      0.30170087	     45.58483447	      0.77963354	      0.00000000	     -0.87774304	     -1.34001149	     -3.96306712	     13.16783687	      0.22982211	     44.74563491	     10.80322707	      0.00000000	      0.02584684	      0.20219871	     -0.43676530	      0.04800016	      0.26892429	     -0.46406313	      0.04246377	      0.49162595	     -0.46406313	      0.02954035	      0.49162595	     -0.38216964	      0.02400137	      0.41232362	     -0.35487180	      0.01476888	      0.31320581	     -0.32757397	      0.18462138	      2.28731229	     -2.42915756	      0.00000000	      0.00000000	     22.36541709	      0.24763228	    -16.41830905	      8.05092651	    -22.89682343	     32.04316051	    142.77712889	     87.10186371	     22.53549785	      6.73711759	     11.30170642	     -9.21511493	    126.60674000	     10.84912038	      8.94613329	     -6.79413106	     -7.52711794
      3.18333333	      1.28310092	     -1.38212236	     98.97835592	      0.18393762	      0.48093551	      0.97276965	      2.30511570	      5.19268325	     -4.77596945	     17.24173744	      0.30092509	     45.43985580	      0.22623637	      0.00000000	     -0.82296200	     -1.37879201	     -5.71213788	     13.15096448	      0.22952763	     44.87144399	     12.64396890	      0.00000000	      0.05259200	      0.17370581	     -0.21149602	      0.09766860	      0.23102873	     -0.22471452	      0.08640339	      0.42234831	     -0.22471452	      0.06010739	      0.42234831	     -0.18505902	      0.04883693	      0.35422089	     -0.17184052	      0.03005107	      0.26907030	     -0.15862202	      0.37565938	      1.96499487	     -1.17627743	      0.00000000	      0.00000000	     22.34390227	     -0.63591400	    -18.39915179	      6.57390566	    -23.18335742	     31.84422487	    142.91182411	     85.56581408	     18.52405925	     11.42560829	     11.48379430	     -8.49549301	    134.56640960	      9.00864227	      4.72900462	     -5.23156193	     -7.40262454
      3.20000000	      1.11661771	     -1.44803227	     99.03369470	      0.18444925	      0.48090279	      0.97222388	      2.24498284	      5.04486051	     -4.75877654	     17.19604449	      0.30012759	     45.40555711	      0.14038454	      0.00000000	     -0.83090498	     -1.22312518	     -5.65787965	     13.13030044	      0.22916697	     44.60012483	     12.38810663	      0.00000000	      0.06225849	      0.14089108	     -0.05757597	      0.11562024	      0.18738514	     -0.06117447	      0.10228447	      0.34256258	     -0.06117447	      0.07115523	      0.34256258	     -0.05037897	      0.05781323	      0.28730509	     -0.04678047	      0.03557450	      0.21824029	     -0.04318198	      0.44470616	      1.59378809	     -0.32022027	      0.00000000	      0.00000000	     22.26759680	     -1.51398531	    -20.36069877	      5.36663944	    -23.10640133	     31.41889814	    142.72506576	     84.77102435	     14.71317142	     16.33055778	     11.66152998	     -8.46445285	    135.47910648	      8.78137504	      4.63901229	     -4.56754218	     -7.32351675
      3.21666667	      1.07581453	     -1.45788187	     99.17245147	      0.18490983	      0.48100105	      0.97171472	      2.14219580	      5.03883092	     -4.82110065	     17.11796978	      0.29876493	     45.30319398	      0.05810207	      0.00000000	     -0.87811731	     -1.24766477	     -5.79351264	     13.14496615	      0.22942294	     44.28547765	     12.30363032	      0.00000000	      0.06910854	      0.12594394	     -0.04327588	      0.12834146	      0.16750544	     -0.04598062	      0.11353841	      0.30622010	     -0.04598062	      0.07898415	      0.30622010	     -0.03786639	      0.06417419	      0.25682488	     -0.03516165	      0.03948862	      0.19508716	     -0.03245691	      0.49363536	      1.42470304	     -0.24068745	      0.00000000	      0.00000000	     22.34024969	     -1.44642310	    -20.65316194	      4.90891270	    -22.69610009	     31.08836870	    141.08491472	     84.75778922	     13.69852198	     17.60009914	     11.53260573	     -8.52363576	    135.63403137	      8.64425618	      4.66114062	     -4.42766626	     -7.33799513
      3.23333333	      1.07891132	     -1.47135563	     99.34827135	      0.18472794	      0.48082942	      0.97163373	      2.12026912	      5.11673189	     -4.35145699	     17.07576058	      0.29802824	     45.16006407	     -0.69872651	      0.00000000	     -0.91230703	     -1.27026781	     -5.80702476	     13.13046124	      0.22916978	     43.96753598	     12.21889752	      0.00000000	      0.06835873	      0.12816974	     -0.04864270	      0.12694900	      0.17046576	     -0.05168287	      0.11230656	      0.31163191	     -0.05168287	      0.07812719	      0.31163191	     -0.04256236	      0.06347792	      0.26136374	     -0.03952219	      0.03906018	      0.19853493	     -0.03648203	      0.48827957	      1.44988174	     -0.27053611	      0.00000000	      0.00000000	     22.38613168	     -1.68817012	    -20.87130147	      5.20321459	    -22.79098049	     32.52745636	    140.57665834	     83.74867383	      6.87315325	     24.85484135	     11.40616184	     -8.21825509	    138.84243861	      7.65347503	      3.92282951	     -3.34339022	     -7.40959049
      3.25000000	      1.18454109	     -1.43413496	     99.40607941	      0.18455275	      0.48068472	      0.97149086	      2.10529760	      5.21813303	     -4.29001783	     17.13286471	      0.29902490	     45.13493066	     -0.69790579	      0.00000000	     -1.00018113	     -1.40063791	     -5.95973187	     13.14914023	      0.22949579	     43.66239374	     12.11731942	      0.00000000	      0.06826199	      0.14343540	     -0.08484727	      0.12676934	      0.19076908	     -0.09015022	      0.11214762	      0.34874882	     -0.09015022	      0.07801663	      0.34874882	     -0.07424136	      0.06338808	      0.29249346	     -0.06893841	      0.03900490	      0.22218143	     -0.06363545	      0.48758857	      1.62256990	     -0.47189506	      0.00000000	      0.00000000	     22.37720641	     -1.76546794	    -20.86516552	      5.39317193	    -22.52378064	     32.94805807	    138.18355154	     83.82703877	      6.47320156	     25.66523029	     11.37673700	     -8.11884946	    139.27592194	      7.58511086	      4.21010034	     -3.20355209	     -7.34592967
      3.26666667	      1.24612274	     -1.31438634	     99.54331431	      0.18406717	      0.48044121	      0.97147279	      2.01273239	      5.38382536	     -3.58979504	     17.19090767	      0.30003794	     44.97190770	     -1.64076642	      0.00000000	     -1.17999556	     -1.50374477	     -6.08289421	     13.14849991	      0.22948462	     43.40437876	     12.25260582	      0.00000000	      0.05455324	      0.16717711	     -0.21964581	      0.10131082	      0.22234555	     -0.23337367	      0.08962552	      0.40647441	     -0.23337367	      0.06234890	      0.40647441	     -0.19219008	      0.05065814	      0.34090755	     -0.17846222	      0.03117172	      0.25895734	     -0.16473436	      0.38966833	      1.89114085	     -1.22160410	      0.00000000	      0.00000000	     22.44936175	     -1.57289776	    -19.35017848	      6.62175050	    -22.69038400	     35.16038737	    135.42693908	     81.95849439	      3.49918207	     26.91092623	     10.91181441	     -7.48284337	    145.99617504	      5.38884124	      3.04127989	     -1.97733618	     -7.25002212
